<svg xmlns="http://www.w3.org/2000/svg" xmlns:xlink="http://www.w3.org/1999/xlink" version="1.1" x="0px" y="0px" viewBox="0 0 595.3 841.9" enable-background="new 0 0 595.3 841.9" xml:space="preserve"><g><path fill="none" d="M297.6,264.3c-63.3,0-114.5,51.3-114.5,114.5c0,63.3,51.3,114.5,114.5,114.5S412.1,442,412.1,378.8   S360.9,264.3,297.6,264.3z"></path><path d="M511.3,377.9c0-0.2,0-0.4,0-0.7c0-0.1,0-0.2,0-0.3c0-0.2,0-0.3-0.1-0.5c0-0.2,0-0.4-0.1-0.6c0,0,0,0,0-0.1   c-0.5-4.2-2.1-8.1-4.5-11.1c-13.7-20.5-30.1-38.7-46.7-55.4c-35.8-35.9-76.8-65.9-122-78c-26.1-7-52.4-7.3-78.7-1.4   c-23.9,5.4-46,16.6-67.5,30.4c-33.7,21.7-64.6,51.6-91.4,85.1c-5,6.2-9.9,12.5-14.4,19.3c-6,9-6,19.6,0,28.6   c13.7,20.5,30.1,38.7,46.7,55.4c35.8,35.9,75.8,65.9,121,78c26.1,7,52.4,7.3,78.7,1.4c23.9-5.4,46.9-16.6,68.5-30.4   c33.7-21.7,64.6-51.6,91.4-85.1c5-6.2,9.9-12.5,14.4-19.3c2.4-3,4-7,4.5-11.2c0,0,0,0,0-0.1c0-0.2,0-0.4,0.1-0.6   c0-0.2,0-0.3,0.1-0.5c0-0.1,0-0.2,0-0.3c0-0.2,0-0.4,0-0.7s0-0.7,0-1C511.4,378.5,511.3,378.2,511.3,377.9z M297.6,493.4   c-63.3,0-114.5-51.3-114.5-114.5c0-63.3,51.3-114.5,114.5-114.5s114.5,51.3,114.5,114.5S360.9,493.4,297.6,493.4z"></path><path d="M297.6,316c-2.8,0-5.6,0.2-8.3,0.6c9.4,6.2,15.6,16.8,15.6,28.9c0,19.1-15.4,34.5-34.5,34.5c-14.7,0-27.2-9.1-32.2-22   c-2.3,6.6-3.6,13.6-3.6,21c0,34.7,28.2,62.9,62.9,62.9s62.9-28.2,62.9-62.9S332.4,316,297.6,316z"></path></g></svg>