<svg xmlns="http://www.w3.org/2000/svg" xmlns:xlink="http://www.w3.org/1999/xlink" version="1.1" preserveAspectRatio="none" x="0px" y="0px" viewBox="0 0 100 125"><defs><g id="a"><path fill="#000000" stroke="none" d=" M 93.8 53.45 Q 96.2 50.15 93.8 46.55 72.25 21.95 50.05 21.95 28.2 21.95 6.35 46.85 3.65 50.75 6.35 53.45 12.95 61.85 22.8 68.75 36.6 78.05 50.05 78.05 72.25 78.05 93.8 53.45 M 50.05 30.35 Q 58.15 30.35 63.85 36.05 69.55 41.75 69.55 50.15 69.55 58.25 63.85 63.95 58.15 69.65 50.05 69.65 41.7 69.65 36 63.95 30.3 58.25 30.3 50.15 30.3 41.75 36 36.05 41.7 30.35 50.05 30.35 M 56.65 43.25 Q 53.95 40.55 50.05 40.55 46.15 40.55 43.2 43.25 40.5 46.25 40.5 50.15 40.5 54.05 43.2 56.75 46.15 59.45 50.05 59.45 53.95 59.45 56.65 56.75 59.35 54.05 59.35 50.15 59.35 46.25 56.65 43.25 Z"/></g></defs><g transform="matrix( 1, 0, 0, 1, 0,0) "><use xlink:href="#a"/></g><text x="0" y="115" fill="#000000" font-size="5px" font-weight="bold" font-family="'Helvetica Neue', Helvetica, Arial-Unicode, Arial, Sans-serif">Created by Miso Duzek</text><text x="0" y="120" fill="#000000" font-size="5px" font-weight="bold" font-family="'Helvetica Neue', Helvetica, Arial-Unicode, Arial, Sans-serif">from the Noun Project</text></svg>