<?xml version="1.0" encoding="utf-8"?>
<!-- Generator: Adobe Illustrator 17.1.0, SVG Export Plug-In . SVG Version: 6.00 Build 0)  -->
<!DOCTYPE svg PUBLIC "-//W3C//DTD SVG 1.1//EN" "http://www.w3.org/Graphics/SVG/1.1/DTD/svg11.dtd">
<svg version="1.1" id="Layer_1" xmlns="http://www.w3.org/2000/svg" xmlns:xlink="http://www.w3.org/1999/xlink" x="0px" y="0px"
	 viewBox="0 0 160.9 76.8" enable-background="new 0 0 160.9 76.8" xml:space="preserve">
<g>
	<rect x="16.2" y="57.9" width="10.1" height="0.9"/>
</g>
<g>
	<path d="M24.6,12c3.3,0,5.2,0.9,6.3,1.9c1.7,1.6,2.6,3.9,2.6,7.1c0,3-0.7,5.3-1.9,6.8c-1.5,1.9-3.5,2.7-6.8,2.7h-6.6V12H24.6z
		 M24.7,28.5c1.8,0,3.6-0.4,4.8-1.8c0.9-1.2,1.6-2.9,1.6-5.4c0-3.5-1.1-5.4-2.9-6.4c-0.8-0.4-1.9-0.6-3.4-0.6h-4v14.3H24.7z"/>
	<path d="M48.6,23.2c0,0.3,0,0.9,0,1.3H38.5c0,2.7,1.5,4.5,4.1,4.5c1.8,0,3-0.8,3.6-2.7l2.3,0.2c-0.7,2.9-2.8,4.5-5.8,4.5
		c-4,0-6.4-2.9-6.4-7c0-3.2,1.8-7.1,6.3-7.1C46.3,16.9,48.5,19.7,48.6,23.2z M38.6,22.6h7.6c-0.1-1.9-1.2-3.8-3.8-3.8
		C40.2,18.8,38.7,20.4,38.6,22.6z"/>
	<path d="M51.8,12H54v18.6h-2.3V12z"/>
	<path d="M63.5,16.9c3,0,5.1,1.7,5.5,4.4l-2.2,0.2c-0.4-1.8-1.6-2.7-3.3-2.7c-2.7,0-4,2.1-4,5.2c0,3.1,1.3,5,3.8,5
		c2,0,3.3-1.1,3.5-3.3l2.3,0.1c-0.5,3.2-2.6,5.1-5.8,5.1c-3.9,0-6.2-2.7-6.2-7C57.2,19.7,59.8,16.9,63.5,16.9z"/>
	<path d="M77.8,16.9c3,0,5.2,1.4,5.2,3.8v6.7c0,1-0.1,1.6,0.4,1.6c0.1,0,0.3,0,0.4-0.1l0.2,1.7c-0.4,0.1-0.7,0.2-1.3,0.2
		c-1.5,0.1-1.8-1.1-1.8-1.9c-1.5,1.6-3,2.1-4.8,2.1c-2.7,0-4.5-1.5-4.5-4c0-2.5,2-3.7,4.9-4c2.6-0.2,3.9-0.8,4.3-1.5
		c0-0.2,0-0.4,0-0.6c0-1.6-1.2-2.3-3.1-2.3c-2,0-3.1,0.7-3.4,2.7l-2.2-0.2C72.3,18.2,74.4,16.9,77.8,16.9z M80.7,23.7
		c-0.8,0.5-2.3,0.8-3.8,1c-1.9,0.2-2.9,0.8-2.9,2.3c0,1.3,1.1,2.1,2.7,2.1c2.1,0,3.4-1,3.9-2.2c0.2-0.4,0.3-0.9,0.3-1.5L80.7,23.7
		L80.7,23.7z"/>
	<path d="M95.7,21.6c0-1.8-1-2.8-2.8-2.8c-2.5,0-3.8,1.7-3.8,4.3v7.5H87V17.2H89v2h0c1-1.5,2.4-2.3,4.3-2.3c3.6,0,4.6,2.3,4.6,5.2
		v8.6h-2.2V21.6z"/>
</g>
<g>
</g>
<g>
</g>
<g>
	<path d="M25.6,49.9v0.5c-1.2,0.3-1.1,1.2-2.5,3c0.2,0.3,0.5,0.7,0.7,0.8c0.9,0.9,1.7,0.5,1.7,1.2c0,0.2-0.2,0.3-0.6,0.3h-0.5
		c-1,0-1.8-0.4-2.4-1.3c-1,0.9-1.8,1.3-2.8,1.3c-1.8,0-2.7-1.2-2.7-2.4c0-1.1,0.6-1.7,2.4-3c-0.7-0.7-0.9-1.3-0.9-1.8
		c0-1.1,1.7-2.1,2.5-2.1c1,0,1.7,1.2,1.7,1.7c0,0.6-0.4,1-1.7,1.8c0.7,0.6,1.5,1.8,2.2,2.9c0.5-0.7,0.9-1.5,0.9-1.8
		c0-0.4-0.3-0.6-0.8-0.7v-0.5H25.6z M20.2,54.8c0.6,0,1-0.2,1.7-0.7c-0.7-1.3-1.8-2.7-2.5-3.3c-1.1,0.7-1.5,1.3-1.5,2
		C17.9,53.8,19.1,54.8,20.2,54.8z M20.2,49.7c0.8-0.5,1.1-0.8,1.1-1.3c0-0.5-0.6-1.2-1.1-1.2c-0.6,0-1.2,0.5-1.2,1
		C19.1,48.6,19.5,49,20.2,49.7z"/>
</g>
<g>
</g>
<g>
	<path d="M40.3,60c-5.1,0-8.6-3.4-8.6-9.7c0-5.6,3.5-9.6,8.7-9.6c4,0,6.8,2.1,7.6,5.7l-2.4,0.3c-0.7-2.7-2.6-3.9-5.1-3.9
		c-4.5,0-6.2,3.7-6.2,7.5c0,6,3.4,7.6,6.2,7.6c3.1,0,4.9-1.9,5.4-5l2.4,0.3C47.5,57.6,44.7,60,40.3,60z"/>
	<path d="M50.8,52.9c0-3,1.5-7,6.4-7c4.4,0,6.4,3.3,6.4,6.9c0,3.6-1.8,7.1-6.4,7.1C53.2,59.9,50.8,57.1,50.8,52.9z M57.2,58
		c2.3,0,4.1-1.7,4.1-5.1c0-3.3-1.8-5.1-4.1-5.1s-4.1,1.7-4.1,5.1C53.2,56.3,54.9,58,57.2,58z"/>
	<path d="M83.1,50.4c0-1.5-0.7-2.6-2.5-2.6c-2,0-3.4,1.2-3.4,3.7v8.1h-2.2v-8.8c0-1.9-0.6-3-2.5-3c-2.1,0-3.1,1.6-3.4,3
		c-0.1,0.6-0.1,1.2-0.1,2v6.8h-2.2V46.2h2.1v2h0c0.9-1.5,2.4-2.2,4.2-2.2s3.2,0.8,3.7,2.3c1-1.5,2.5-2.3,4.2-2.3
		c2.7,0,4.3,1.3,4.3,4.2v9.5h-2.3V50.4z"/>
	<path d="M95.7,45.9c3.7,0,5.8,3.2,5.8,6.9c0,3.7-2,7.1-6,7.1c-1.5,0-3.1-0.6-3.9-1.9h0v6.7h-2.3V46.2h2.2V48h0
		C92.3,46.5,93.8,45.9,95.7,45.9z M95.3,47.8c-2.8,0-3.9,2.7-3.9,5.2c0,3,1.4,5.1,3.9,5.1s3.8-2.1,3.8-5.2
		C99.2,49.8,97.7,47.8,95.3,47.8z"/>
	<path d="M110.1,45.9c3,0,5.2,1.4,5.2,3.8v6.7c0,1-0.1,1.6,0.4,1.6c0.1,0,0.3,0,0.4-0.1l0.2,1.7c-0.4,0.1-0.7,0.2-1.3,0.2
		c-1.5,0.1-1.8-1.1-1.8-1.9c-1.5,1.6-3,2.1-4.8,2.1c-2.7,0-4.5-1.5-4.5-4c0-2.5,2-3.7,4.9-4c2.6-0.2,3.9-0.8,4.3-1.5
		c0-0.2,0-0.4,0-0.6c0-1.6-1.2-2.3-3.1-2.3c-2,0-3.1,0.7-3.4,2.7l-2.2-0.2C104.6,47.2,106.7,45.9,110.1,45.9z M113,52.7
		c-0.8,0.5-2.3,0.8-3.8,1c-1.9,0.2-2.9,0.8-2.9,2.3c0,1.3,1.1,2.1,2.7,2.1c2.1,0,3.4-1,3.9-2.2c0.2-0.4,0.3-0.9,0.3-1.5L113,52.7
		L113,52.7z"/>
	<path d="M128.1,50.6c0-1.8-1-2.8-2.8-2.8c-2.5,0-3.8,1.7-3.8,4.3v7.5h-2.2V46.2h2.1v2h0c1-1.5,2.4-2.3,4.3-2.3
		c3.6,0,4.6,2.3,4.6,5.2v8.6h-2.2V50.6z"/>
	<path d="M142.5,46.2h2.3l-6.1,16c-0.9,2.2-1.8,2.9-3.6,2.9c-0.5,0-1-0.1-1.5-0.2l-0.1-2.1c0.4,0.2,0.9,0.3,1.3,0.3
		c1,0,1.6-0.3,1.9-1.1l0.9-2.3l-5.2-13.4h2.5l2.7,7.6l1.1,3.4h0l1.2-3.4L142.5,46.2z"/>
</g>
</svg>
